<?xml version="1.0" encoding="utf-8"?>
<!-- Generator: Adobe Illustrator 23.0.3, SVG Export Plug-In . SVG Version: 6.00 Build 0)  -->
<svg version="1.1" id="Layer_1" xmlns="http://www.w3.org/2000/svg" xmlns:xlink="http://www.w3.org/1999/xlink" x="0px" y="0px"
	 viewBox="0 0 660 595.3" style="enable-background:new 0 0 660 595.3;" xml:space="preserve">
<style type="text/css">
	.st0{fill:url(#SVGID_1_);}
	.st1{fill:url(#SVGID_2_);}
	.st2{fill:url(#SVGID_3_);}
	.st3{fill:url(#SVGID_4_);}
</style>
<g>
	
		<linearGradient id="SVGID_1_" gradientUnits="userSpaceOnUse" x1="403.3791" y1="-0.7632" x2="404.0413" y2="0.1196" gradientTransform="matrix(660 0 0 587.9 -266145 455.6816)">
		<stop  offset="0" style="stop-color:#00F9FF"/>
		<stop  offset="1" style="stop-color:#FB37FF"/>
	</linearGradient>
	<path class="st0" d="M621.3,297.7c0-38.7-48.3-75.1-122.4-97.9c17.1-75.6,9.4-135.7-24-154.9c-7.8-4.6-16.8-6.7-26.7-6.7v26.4
		c5.4,0,9.9,1.1,13.6,3.1c16.2,9.3,23.1,44.6,17.7,89.9c-1.2,11.1-3.4,23-6.1,35c-23.2-5.7-48.7-10.1-75.4-13
		c-16.1-22-32.7-41.9-49.4-59.3c38.8-36,75-55.7,99.8-55.7V38.1l0,0c-32.7,0-75.4,23.2-118.7,63.7c-43.3-40.1-86.2-63.1-118.8-63.1
		v26.6c24.6,0,61,19.6,99.8,55.4c-16.7,17.4-33.2,37.3-49.1,59.2c-26.8,2.8-52.3,7.2-75.6,13.1c-2.7-11.9-4.8-23.4-6.2-34.4
		c-5.7-45.4,1.2-80.7,17.3-90.1c3.6-2.1,8.2-3.1,13.7-3.1V38.8l0,0c-10,0-19,2.1-26.8,6.7c-33.3,19.2-40.8,79.2-23.6,154.6
		c-73.8,22.7-121.9,59.2-121.9,97.6c0,38.7,48.3,75.1,122.4,97.9c-17.1,75.6-9.4,135.7,24,154.9c7.8,4.6,16.8,6.7,26.8,6.7
		c32.7,0,75.4-23.2,118.7-63.7c43.2,40.2,85.9,63.1,118.6,63.1c10,0,19-2.1,26.8-6.7c33.4-19.2,40.9-79.2,23.7-154.6
		C573.1,372.7,621.3,336.2,621.3,297.7z M466.7,218.5c-4.3,15.3-9.9,31.1-16.1,46.9c-4.9-9.4-10-19-15.6-28.4
		c-5.4-9.4-11.3-18.8-17.1-27.8C434.8,211.6,451,214.7,466.7,218.5z M412.2,344.9c-9.3,16.1-18.8,31.3-28.7,45.4
		c-17.7,1.6-35.7,2.4-53.7,2.4c-17.9,0-35.8-0.9-53.4-2.2c-9.9-14.1-19.4-29.2-28.8-45.1c-9-15.6-17.2-31.3-24.7-47.2
		c7.3-15.9,15.7-31.9,24.6-47.3c9.3-16.1,18.8-31.3,28.7-45.4c17.7-1.6,35.7-2.4,53.7-2.4c17.9,0,35.8,0.9,53.4,2.2
		c9.9,14.1,19.4,29.2,28.8,45.1c9,15.6,17.2,31.3,24.7,47.2C429.3,313.5,421.1,329.5,412.2,344.9z M450.7,329.6
		c6.4,15.9,11.9,31.9,16.3,47.2c-15.6,3.8-32,7-48.9,9.4c5.8-9.1,11.7-18.5,17.1-28.2C440.7,348.6,445.7,339,450.7,329.6z
		 M330.2,456.3c-11-11.4-22.1-24.1-33-38c10.7,0.4,21.6,0.9,32.7,0.9c11.1,0,22.2-0.2,33-0.9C352.2,432.2,341.1,444.9,330.2,456.3z
		 M241.8,386.3c-16.9-2.6-33.1-5.7-48.7-9.4c4.3-15.3,9.9-31.1,16.1-46.9c4.9,9.4,10,19,15.6,28.4C230.3,368,236,377.3,241.8,386.3z
		 M329.6,139.1c11,11.4,22.1,24.1,33,38c-10.7-0.4-21.6-0.9-32.7-0.9c-11.1,0-22.2,0.2-33,0.9C307.7,163.3,318.7,150.6,329.6,139.1z
		 M241.7,209.1c-5.8,9.1-11.7,18.5-17.1,28.2c-5.4,9.4-10.6,19-15.4,28.4c-6.4-15.9-11.9-31.9-16.3-47.2
		C208.3,214.8,224.8,211.6,241.7,209.1z M134.2,357.8c-42-17.9-69.2-41.4-69.2-60.1c0-18.7,27.2-42.3,69.2-60.1
		c10.2-4.3,21.4-8.3,32.9-12c6.8,23.2,15.7,47.6,26.8,72.3c-10.9,24.7-19.8,48.8-26.3,72C155.7,366.3,144.6,362.2,134.2,357.8z
		 M198.1,527.5c-16.2-9.3-23.1-44.6-17.7-89.9c1.2-11.1,3.4-23,6.1-35c23.2,5.7,48.7,10.1,75.4,13c16.1,22,32.7,41.9,49.4,59.3
		c-38.8,36-75,55.7-99.8,55.7C206.2,530.6,201.7,529.5,198.1,527.5z M479.8,437c5.7,45.4-1.2,80.7-17.3,90.1
		c-3.6,2.1-8.2,3.1-13.7,3.1c-24.6,0-61-19.6-99.8-55.4c16.7-17.4,33.2-37.3,49.1-59.2c26.8-2.8,52.3-7.2,75.6-13.1
		C476.5,414.5,478.6,426,479.8,437z M525.6,357.8c-10.2,4.3-21.4,8.3-32.9,12c-6.8-23.2-15.7-47.6-26.8-72.3
		c10.9-24.7,19.8-48.8,26.3-72c11.7,3.7,23,7.8,33.4,12.1c42,17.9,69.2,41.4,69.2,60.1C594.9,316.4,567.7,340,525.6,357.8z"/>
	
		<linearGradient id="SVGID_2_" gradientUnits="userSpaceOnUse" x1="-75.2093" y1="-417.6364" x2="-75.2093" y2="-417.6364" gradientTransform="matrix(1 0 0 1 286.2 456.3)">
		<stop  offset="0" style="stop-color:#00F9FF"/>
		<stop  offset="1" style="stop-color:#FB37FF"/>
	</linearGradient>
	<path class="st1" d="M211,38.7L211,38.7L211,38.7z"/>
	
		<linearGradient id="SVGID_3_" gradientUnits="userSpaceOnUse" x1="400.0984" y1="-3.6752" x2="400.7606" y2="-2.7924" gradientTransform="matrix(122.8 0 0 122.8 -48847.8008 688.2987)">
		<stop  offset="0" style="stop-color:#00F9FF"/>
		<stop  offset="1" style="stop-color:#FB37FF"/>
	</linearGradient>
	<circle class="st2" cx="329.8" cy="297.7" r="54.2"/>
	
		<linearGradient id="SVGID_4_" gradientUnits="userSpaceOnUse" x1="-106.6736" y1="-417.6013" x2="-106.6736" y2="-417.6013" gradientTransform="matrix(1 0 0 1 554.8 456)">
		<stop  offset="0" style="stop-color:#00F9FF"/>
		<stop  offset="1" style="stop-color:#FB37FF"/>
	</linearGradient>
	<path class="st3" d="M448.1,38.4L448.1,38.4L448.1,38.4z"/>
</g>
</svg>
